<?xml version="1.0" encoding="UTF-8" standalone="no"?>
<svg xmlns="http://www.w3.org/2000/svg" version="1.2" baseProfile="tiny" viewBox="0.00 0.00 300.00 204.00">
<g stroke-width="2.00" fill="none" stroke-linecap="butt">
<path stroke="#9298a5" vector-effect="non-scaling-stroke" d="
  M 100.27 40.31
  C 106.70 37.23 105.77 27.46 98.77 25.82
  C 90.82 23.95 85.80 33.54 91.67 39.09
  C 92.31 39.70 93.09 39.99 93.70 40.57
  C 93.99 40.83 94.13 41.15 94.12 41.54
  L 94.01 48.72
  C 94.00 49.78 94.41 50.80 95.16 51.55
  L 102.35 58.72
  C 102.56 58.93 102.56 59.26 102.36 59.48
  C 99.33 62.70 95.72 65.30 91.55 67.27
  C 91.44 67.33 91.44 67.48 91.55 67.53
  L 97.99 70.47
  C 98.20 70.57 98.45 70.55 98.66 70.43
  C 105.85 66.00 110.61 60.24 112.95 53.13
  C 113.97 50.04 114.43 45.77 114.32 40.30
  C 114.20 33.65 114.14 26.73 114.13 19.56
  C 114.13 19.32 114.20 19.10 114.33 18.89
  C 114.56 18.56 114.85 18.27 115.21 18.03
  C 120.01 14.86 119.83 7.90 115.05 4.96
  C 110.63 2.25 104.78 4.50 103.41 9.45
  C 102.42 13.03 104.05 16.46 107.13 18.41
  C 107.64 18.73 107.95 19.30 107.96 19.90
  C 107.99 28.24 108.01 36.74 108.04 45.41
  C 108.05 48.29 107.25 50.98 106.04 53.52
  C 105.90 53.81 105.53 53.88 105.28 53.68
  C 103.33 52.08 101.55 50.25 99.94 48.19
  C 99.73 47.91 99.61 47.57 99.61 47.21
  L 99.68 41.24
  C 99.69 40.84 99.91 40.48 100.27 40.31"
/>
<path stroke="#d4e7b5" vector-effect="non-scaling-stroke" d="
  M 64.00 23.17
  C 69.00 17.08 70.20 10.62 64.11 4.50
  C 63.65 4.04 62.91 4.02 62.43 4.46
  C 56.67 9.74 56.96 18.20 62.91 23.26
  C 63.24 23.54 63.72 23.50 64.00 23.17"
/>
<path stroke="#d4e7b5" vector-effect="non-scaling-stroke" d="
  M 42.63 14.21
  C 41.86 21.44 46.70 29.03 54.74 28.06
  C 55.01 28.02 55.22 27.81 55.24 27.54
  C 56.00 20.13 51.96 13.07 44.18 12.85
  C 43.24 12.82 42.72 13.28 42.63 14.21"
/>
<path stroke="#d4e7b5" vector-effect="non-scaling-stroke" d="
  M 72.79 28.48
  C 80.48 27.10 84.99 21.35 83.76 13.88
  C 83.59 12.86 83.01 12.46 82.00 12.67
  C 74.20 14.30 70.63 19.19 71.29 27.33
  C 71.36 28.26 71.86 28.65 72.79 28.48"
/>
<path stroke="#9298a5" vector-effect="non-scaling-stroke" d="
  M 76.71 70.77
  C 82.26 73.75 90.35 75.43 95.15 79.81
  C 96.88 81.38 97.96 83.75 98.39 86.91
  C 99.36 93.93 93.98 98.93 87.16 99.13
  C 73.66 99.51 72.45 118.79 85.70 121.18
  C 89.57 121.88 93.35 123.00 97.06 124.55
  C 97.63 124.78 98.28 124.72 98.79 124.39
  C 108.46 118.17 114.94 107.83 113.65 96.29
  C 112.23 83.54 102.83 74.32 90.62 70.09
  C 86.91 68.80 83.42 67.33 80.15 65.66
  C 72.36 61.71 66.29 53.71 66.29 44.68
  C 66.29 39.66 66.28 35.16 66.26 31.17
  C 66.25 29.09 65.21 28.12 63.14 28.27
  L 62.68 28.30
  C 61.13 28.41 60.34 29.23 60.31 30.78
  C 60.14 37.99 59.31 46.77 61.59 53.43
  C 64.16 60.96 69.20 66.74 76.71 70.77"
/>
<path stroke="#dfebad" vector-effect="non-scaling-stroke" d="
  M 42.67 32.49
  C 42.08 39.74 45.45 46.65 53.28 47.40
  C 54.43 47.51 55.01 46.99 55.02 45.84
  C 55.05 43.46 55.32 41.22 54.28 38.95
  C 52.17 34.34 48.49 32.01 43.26 31.95
  C 42.95 31.94 42.69 32.18 42.67 32.49"
/>
<path stroke="#dfebad" vector-effect="non-scaling-stroke" d="
  M 72.94 47.39
  C 80.47 45.77 84.59 41.57 83.68 33.14
  C 83.58 32.21 83.07 31.80 82.14 31.90
  C 73.80 32.81 70.82 38.73 71.50 46.32
  C 71.58 47.22 72.06 47.58 72.94 47.39"
/>
<path stroke="#d4e7b5" vector-effect="non-scaling-stroke" d="
  M 30.43 71.36
  C 30.40 70.76 29.87 70.31 29.28 70.38
  L 25.27 70.87
  C 24.76 70.93 24.37 71.36 24.36 71.88
  L 24.28 77.01
  C 24.27 77.59 24.74 78.07 25.32 78.06
  L 29.67 78.03
  C 30.25 78.02 30.72 77.53 30.69 76.95
  L 30.43 71.36"
/>
<path stroke="#9298a5" vector-effect="non-scaling-stroke" d="
  M 274.2850 71.1666
  C 274.28 70.86 274.02 70.61 273.7134 70.6184
  L 268.7145 70.7232
  C 268.41 70.73 268.16 70.99 268.1664 71.2948
  L 268.2950 77.4334
  C 268.30 77.74 268.56 77.99 268.8666 77.9816
  L 273.8655 77.8768
  C 274.17 77.87 274.42 77.61 274.4136 77.3052
  L 274.2850 71.1666"
/>
<path stroke="#9298a5" vector-effect="non-scaling-stroke" d="
  M 176.16 114.46
  L 176.45 115.45
  C 176.56 115.82 176.81 116.01 177.20 116.00
  L 181.50 115.97
  C 181.90 115.97 182.22 115.65 182.22 115.25
  L 182.23 71.21
  C 182.23 70.93 182.00 70.70 181.71 70.70
  L 176.52 70.73
  C 176.19 70.74 176.02 70.90 176.02 71.23
  L 176.05 83.01
  C 176.05 83.58 175.83 83.68 175.40 83.31
  C 174.43 82.48 173.36 82.00 172.19 81.89
  C 166.99 81.37 164.53 85.38 164.36 90.24
  C 164.17 95.64 164.17 101.62 164.36 108.19
  C 164.50 113.12 166.67 117.56 172.54 116.25
  C 173.68 115.99 174.53 115.10 175.29 114.26
  C 175.70 113.80 175.99 113.87 176.16 114.46"
/>
<path stroke="#9298a5" vector-effect="non-scaling-stroke" d="
  M 128.28 79.79
  C 129.05 77.20 132.32 77.80 133.08 80.02
  C 133.41 80.99 133.47 82.60 133.24 84.85
  C 133.22 85.05 133.38 85.22 133.58 85.23
  L 138.77 85.30
  C 139.04 85.31 139.19 85.18 139.22 84.91
  C 139.91 78.68 138.47 72.00 130.72 71.99
  C 123.14 71.99 121.54 78.02 121.56 84.27
  C 121.59 91.22 121.59 98.16 121.57 105.08
  C 121.55 110.25 122.77 115.93 129.02 116.52
  C 137.70 117.34 139.88 111.20 139.53 103.98
  C 139.50 103.33 139.16 103.01 138.51 103.01
  L 134.46 102.99
  C 133.78 102.98 133.46 103.32 133.49 104.00
  C 133.57 105.79 133.63 110.73 130.65 110.54
  C 128.21 110.38 127.81 107.91 127.82 105.92
  C 127.85 98.13 127.86 90.44 127.84 82.85
  C 127.83 81.82 127.98 80.80 128.28 79.79"
/>
<path stroke="#d4e7b5" vector-effect="non-scaling-stroke" d="
  M 17.37 92.15
  C 19.86 89.40 19.49 86.19 19.65 82.78
  C 19.89 77.62 17.46 73.06 11.83 72.64
  C 8.76 72.41 5.66 72.38 2.53 72.53
  C 2.27 72.54 2.06 72.76 2.06 73.03
  L 1.98 115.22
  C 1.98 115.62 2.29 115.95 2.68 115.97
  C 6.11 116.16 9.40 116.14 12.56 115.90
  C 21.01 115.25 20.82 106.25 20.43 99.82
  C 20.27 97.25 19.27 95.09 17.42 93.35
  C 17.08 93.03 17.06 92.49 17.37 92.15"
/>
<path stroke="#9298a5" vector-effect="non-scaling-stroke" d="
  M 223.41 72.84
  L 223.55 115.64
  C 223.56 115.84 223.71 115.99 223.91 115.99
  L 232.56 115.96
  C 237.98 115.94 242.36 111.36 242.34 105.73
  L 242.26 82.63
  C 242.24 76.99 237.83 72.44 232.40 72.46
  L 223.75 72.49
  C 223.56 72.49 223.40 72.65 223.41 72.84"
/>
<path stroke="#9298a5" vector-effect="non-scaling-stroke" d="
  M 71.55 84.62
  C 74.48 81.27 77.97 78.72 82.01 76.97
  C 82.70 76.67 82.70 76.37 82.01 76.07
  L 76.33 73.62
  C 75.79 73.39 75.18 73.44 74.69 73.75
  C 63.48 80.98 56.55 94.12 61.13 107.47
  C 64.63 117.64 74.04 125.91 84.47 128.72
  C 95.29 131.63 104.31 137.77 107.12 148.87
  C 108.26 153.40 107.54 160.49 107.62 165.81
  C 107.65 167.68 108.57 168.85 110.38 169.32
  C 110.69 169.39 110.99 169.40 111.28 169.33
  C 112.87 168.96 113.68 167.96 113.73 166.33
  C 113.86 160.91 113.84 155.91 113.65 151.32
  C 113.15 139.19 103.26 128.98 92.20 124.91
  C 89.57 123.94 86.86 122.97 84.07 122.01
  C 68.61 116.66 59.22 98.69 71.55 84.62"
/>
<path stroke="#9298a5" vector-effect="non-scaling-stroke" d="
  M 90.22 82.76
  C 90.22 81.85 89.48 81.11 88.57 81.11
  L 85.01 81.11
  C 84.10 81.11 83.36 81.85 83.36 82.76
  L 83.36 90.14
  C 83.36 91.05 84.10 91.79 85.01 91.79
  L 88.57 91.79
  C 89.48 91.79 90.22 91.05 90.22 90.14
  L 90.22 82.76"
/>
<path stroke="#d4e7b5" vector-effect="non-scaling-stroke" d="
  M 52.5646 90.2845
  C 52.56 85.63 48.78 81.86 44.1199 81.8692
  L 43.1799 81.8708
  C 38.52 81.88 34.76 85.66 34.7646 90.3155
  L 34.7954 107.9755
  C 34.80 112.63 38.58 116.40 43.2401 116.3908
  L 44.1801 116.3892
  C 48.84 116.38 52.60 112.60 52.5954 107.9445
  L 52.5646 90.2845"
/>
<path stroke="#9298a5" vector-effect="non-scaling-stroke" d="
  M 160.5354 90.3555
  C 160.54 85.72 156.79 81.95 152.1501 81.9408
  L 151.2101 81.9392
  C 146.57 81.93 142.80 85.69 142.7954 90.3245
  L 142.7646 108.0045
  C 142.76 112.64 146.51 116.41 151.1499 116.4192
  L 152.0899 116.4208
  C 156.73 116.43 160.50 112.67 160.5046 108.0355
  L 160.5354 90.3555"
/>
<path stroke="#9298a5" vector-effect="non-scaling-stroke" d="
  M 193.18 100.83
  L 203.22 100.98
  C 203.56 100.99 203.74 100.82 203.75 100.49
  C 203.89 96.70 203.85 93.25 203.62 90.13
  C 203.21 84.61 199.54 81.09 194.01 81.96
  C 189.44 82.67 186.97 85.57 186.62 90.65
  C 186.35 94.50 186.25 99.33 186.32 105.12
  C 186.41 112.43 188.70 117.46 197.20 116.35
  C 202.17 115.70 203.99 110.70 203.72 106.03
  C 203.71 105.85 203.61 105.76 203.44 105.76
  L 198.20 105.79
  C 198.04 105.79 197.95 105.87 197.94 106.04
  C 197.81 107.57 197.44 108.94 196.83 110.16
  C 196.61 110.58 196.20 110.86 195.73 110.90
  C 191.39 111.26 192.22 104.36 192.50 101.44
  C 192.54 101.03 192.77 100.83 193.18 100.83"
/>
<path stroke="#9298a5" vector-effect="non-scaling-stroke" d="
  M 213.71 86.48
  L 213.74 83.22
  C 213.74 82.70 213.48 82.44 212.97 82.45
  L 208.66 82.50
  C 208.11 82.51 207.83 82.79 207.83 83.34
  L 207.82 115.32
  C 207.82 115.70 208.14 116.02 208.52 116.01
  L 213.47 115.97
  C 213.84 115.97 214.03 115.78 214.03 115.41
  C 214.04 109.23 214.05 103.09 214.06 96.98
  C 214.07 93.48 215.71 90.16 219.70 90.26
  C 220.24 90.27 220.51 90.01 220.50 89.47
  L 220.49 83.30
  C 220.49 81.95 219.87 81.54 218.63 82.05
  C 216.54 82.91 215.04 84.42 214.12 86.57
  C 213.84 87.24 213.70 87.21 213.71 86.48"
/>
<path stroke="#9298a5" vector-effect="non-scaling-stroke" d="
  M 263.92 90.40
  C 263.92 85.74 260.14 81.96 255.48 81.96
  L 254.54 81.96
  C 249.88 81.96 246.10 85.74 246.10 90.40
  L 246.10 108.00
  C 246.10 112.66 249.88 116.44 254.54 116.44
  L 255.48 116.44
  C 260.14 116.44 263.92 112.66 263.92 108.00
  L 263.92 90.40"
/>
<path stroke="#9298a5" vector-effect="non-scaling-stroke" d="
  M 296.4147 90.4244
  C 296.41 85.75 292.61 81.97 287.9399 81.9792
  L 286.9799 81.9809
  C 282.31 81.99 278.53 85.78 278.5347 90.4556
  L 278.5653 108.0156
  C 278.57 112.69 282.37 116.47 287.0401 116.4608
  L 288.0001 116.4591
  C 292.67 116.45 296.45 112.66 296.4453 107.9844
  L 296.4147 90.4244"
/>
<path stroke="#d4e7b5" vector-effect="non-scaling-stroke" d="
  M 30.6073 83.4956
  C 30.61 82.87 30.10 82.36 29.4793 82.3636
  L 25.3793 82.3564
  C 24.76 82.36 24.25 82.86 24.2473 83.4845
  L 24.1927 114.8044
  C 24.19 115.43 24.70 115.94 25.3207 115.9364
  L 29.4207 115.9436
  C 30.04 115.94 30.55 115.44 30.5527 114.8155
  L 30.6073 83.4956"
/>
<path stroke="#9298a5" vector-effect="non-scaling-stroke" d="
  M 266.78 121.34
  L 265.22 121.51
  C 264.91 121.54 264.75 121.72 264.75 122.03
  L 264.75 126.72
  C 264.75 127.12 264.95 127.35 265.34 127.42
  C 271.80 128.45 274.22 125.09 274.28 119.22
  C 274.40 107.30 274.41 95.15 274.32 82.76
  C 274.32 82.59 274.18 82.46 274.01 82.46
  L 268.49 82.50
  C 268.35 82.50 268.24 82.62 268.24 82.76
  L 268.24 119.72
  C 268.24 120.70 267.75 121.24 266.78 121.34"
/>
<path stroke="#9298a5" vector-effect="non-scaling-stroke" d="
  M 67.98 144.26
  C 68.16 143.89 68.65 143.81 68.94 144.10
  L 74.12 149.36
  C 74.37 149.63 74.50 149.94 74.50 150.31
  L 74.51 156.27
  C 74.51 156.67 74.35 156.98 74.02 157.21
  C 71.46 158.98 69.71 160.89 69.55 164.24
  C 69.16 172.47 80.14 175.23 84.08 168.20
  C 86.40 164.05 84.57 159.90 80.67 157.21
  C 80.34 156.98 80.18 156.67 80.19 156.28
  L 80.21 149.00
  C 80.22 148.02 79.82 147.07 79.12 146.38
  L 72.03 139.47
  C 71.73 139.18 71.72 138.71 72.00 138.41
  C 74.83 135.36 78.08 133.02 81.73 131.41
  C 82.47 131.08 82.47 130.76 81.73 130.43
  L 76.68 128.22
  C 75.82 127.84 75.00 127.91 74.22 128.43
  C 67.90 132.62 63.57 138.00 61.22 144.57
  C 60.09 147.72 59.57 151.70 59.66 156.50
  C 59.80 163.99 59.81 171.35 59.69 178.60
  C 59.68 178.93 59.56 179.21 59.31 179.44
  C 58.74 179.95 58.17 180.49 57.62 181.04
  C 53.56 185.07 55.61 191.65 60.65 193.46
  C 69.92 196.78 75.43 183.31 66.54 179.28
  C 66.22 179.13 66.02 178.81 66.02 178.46
  C 66.01 169.92 66.01 161.52 66.02 153.25
  C 66.03 150.02 66.68 147.02 67.98 144.26"
/>
<path stroke="#dfebad" vector-effect="non-scaling-stroke" d="
  M 118.59 149.82
  C 117.50 157.76 121.90 164.41 130.30 164.88
  C 130.67 164.90 131.00 164.64 131.06 164.28
  C 132.42 156.16 127.67 150.30 119.68 149.01
  C 119.15 148.92 118.66 149.29 118.59 149.82"
/>
<path stroke="#dfebad" vector-effect="non-scaling-stroke" d="
  M 96.89 163.12
  C 101.39 160.07 103.06 155.53 102.44 150.25
  C 102.37 149.63 101.82 149.18 101.20 149.22
  C 98.65 149.39 96.28 150.40 94.07 152.27
  C 90.44 155.34 89.16 159.35 90.21 164.30
  C 90.34 164.90 90.98 165.24 91.55 165.01
  C 93.31 164.30 95.31 164.19 96.89 163.12"
/>
<path stroke="#d4e7b5" vector-effect="non-scaling-stroke" d="
  M 91.34 183.96
  C 99.07 183.15 103.09 177.27 102.53 169.41
  C 102.48 168.67 102.09 168.29 101.34 168.26
  C 99.57 168.19 97.90 168.61 96.33 169.51
  C 91.48 172.31 89.32 176.72 89.86 182.75
  C 89.93 183.50 90.59 184.04 91.34 183.96"
/>
<path stroke="#d4e7b5" vector-effect="non-scaling-stroke" d="
  M 121.04 179.40
  C 123.38 182.17 126.28 183.66 129.73 183.89
  C 130.37 183.93 130.93 183.47 131.00 182.83
  C 131.85 174.50 128.10 169.61 119.76 168.15
  C 119.10 168.04 118.74 168.31 118.67 168.98
  C 118.27 172.76 118.48 176.38 121.04 179.40"
/>
<path stroke="#d4e7b5" vector-effect="non-scaling-stroke" d="
  M 110.4981 191.9199
  C 113.13 191.93 115.27 187.84 115.2900 182.7866
  C 115.31 177.73 113.19 173.63 110.5619 173.6201
  C 107.93 173.61 105.79 177.70 105.7700 182.7534
  C 105.75 187.81 107.87 191.91 110.4981 191.9199"
/>
<path stroke="#9298a5" vector-effect="non-scaling-stroke" d="
  M 111.2658 14.8787
  C 113.03 14.68 114.29 13.04 114.0794 11.2166
  C 113.87 9.39 112.28 8.08 110.5142 8.2813
  C 108.75 8.48 107.49 10.12 107.7006 11.9434
  C 107.91 13.77 109.50 15.08 111.2658 14.8787"
/>
<path stroke="#9298a5" vector-effect="non-scaling-stroke" d="
  M 100.14 33.37
  C 100.14 31.56 98.67 30.09 96.86 30.09
  C 95.05 30.09 93.58 31.56 93.58 33.37
  C 93.58 35.18 95.05 36.65 96.86 36.65
  C 98.67 36.65 100.14 35.18 100.14 33.37"
/>
<path stroke="#9298a5" vector-effect="non-scaling-stroke" d="
  M 86.97 107.51
  L 86.77 113.81
  C 86.76 114.19 86.56 114.41 86.18 114.48
  L 84.96 114.67
  C 84.66 114.72 84.42 114.94 84.34 115.24
  L 84.24 115.62
  C 84.19 115.83 84.34 116.03 84.55 116.04
  L 90.18 116.21
  C 90.55 116.22 90.79 116.05 90.88 115.70
  C 91.17 114.60 91.26 113.43 91.16 112.18
  C 91.13 111.74 90.92 111.42 90.53 111.22
  L 90.28 111.09
  C 89.92 110.90 89.50 111.22 89.59 111.62
  C 89.81 112.58 89.74 113.46 89.37 114.26
  C 89.12 114.81 88.30 114.62 88.32 114.02
  L 88.52 106.54
  C 88.54 105.84 87.98 105.27 87.29 105.26
  L 85.09 105.25
  C 84.73 105.24 84.42 105.52 84.38 105.88
  L 84.34 106.31
  C 84.32 106.50 84.45 106.67 84.64 106.69
  L 86.50 106.96
  C 86.77 107.00 86.98 107.24 86.97 107.51"
/>
<path stroke="#9298a5" vector-effect="non-scaling-stroke" d="
  M 175.9899 90.5797
  C 176.00 89.11 174.81 87.92 173.3392 87.9104
  L 173.1592 87.9098
  C 171.69 87.90 170.50 89.09 170.4900 90.5605
  L 170.4301 107.7203
  C 170.42 109.19 171.61 110.38 173.0808 110.3896
  L 173.2608 110.3902
  C 174.73 110.40 175.92 109.21 175.9300 107.7395
  L 175.9899 90.5797"
/>
<path stroke="#d4e7b5" vector-effect="non-scaling-stroke" d="
  M 8.21 79.17
  L 8.19 89.19
  C 8.19 89.76 8.65 90.23 9.22 90.23
  L 9.97 90.23
  C 12.18 90.23 13.97 88.35 13.98 86.04
  L 13.98 82.36
  C 13.99 80.04 12.20 78.15 9.99 78.15
  L 9.24 78.15
  C 8.67 78.15 8.21 78.61 8.21 79.17"
/>
<path stroke="#d4e7b5" vector-effect="non-scaling-stroke" d="
  M 8.25 96.59
  L 8.21 109.67
  C 8.21 110.11 8.56 110.47 9.00 110.47
  L 10.42 110.48
  C 12.49 110.48 14.17 108.82 14.18 106.76
  L 14.20 99.54
  C 14.21 97.48 12.54 95.80 10.48 95.80
  L 9.06 95.79
  C 8.61 95.79 8.25 96.15 8.25 96.59"
/>
<path stroke="#9298a5" vector-effect="non-scaling-stroke" d="
  M 232.16 110.22
  L 232.81 110.06
  C 234.84 109.55 235.88 108.26 235.95 106.17
  C 236.19 98.30 236.16 90.23 235.85 81.94
  C 235.78 80.13 234.87 79.05 233.10 78.69
  C 232.71 78.61 232.33 78.52 231.96 78.41
  C 230.34 77.94 229.53 78.55 229.52 80.24
  L 229.51 108.15
  C 229.51 109.97 230.39 110.66 232.16 110.22"
/>
<path stroke="#9298a5" vector-effect="non-scaling-stroke" d="
  M 88.7844 83.3165
  C 88.78 82.87 88.42 82.52 87.9830 82.5179
  L 85.5630 82.5221
  C 85.12 82.52 84.76 82.88 84.7644 83.3235
  L 84.7756 89.7035
  C 84.78 90.15 85.14 90.50 85.5770 90.5021
  L 87.9970 90.4979
  C 88.44 90.50 88.80 90.14 88.7956 89.6965
  L 88.7844 83.3165"
/>
<path stroke="#d4e7b5" vector-effect="non-scaling-stroke" d="
  M 46.4050 90.6548
  C 46.41 89.20 45.23 88.01 43.7696 88.0102
  L 43.5896 88.0099
  C 42.13 88.01 40.95 89.19 40.9450 90.6452
  L 40.9150 107.8652
  C 40.91 109.32 42.09 110.51 43.5504 110.5098
  L 43.7304 110.5101
  C 45.19 110.51 46.37 109.33 46.3750 107.8748
  L 46.4050 90.6548"
/>
<path stroke="#9298a5" vector-effect="non-scaling-stroke" d="
  M 154.5099 90.5699
  C 154.52 89.06 153.30 87.84 151.7895 87.8304
  L 151.6095 87.8298
  C 150.10 87.82 148.88 89.04 148.8700 90.5502
  L 148.8101 107.7101
  C 148.80 109.22 150.02 110.44 151.5305 110.4496
  L 151.7105 110.4502
  C 153.22 110.46 154.44 109.24 154.4500 107.7298
  L 154.5099 90.5699"
/>
<path stroke="#9298a5" vector-effect="non-scaling-stroke" d="
  M 193.34 95.72
  L 197.18 95.72
  C 197.69 95.72 198.10 95.30 198.10 94.80
  L 198.09 91.42
  C 198.09 89.25 196.98 87.50 195.62 87.50
  L 194.86 87.50
  C 193.50 87.50 192.41 89.26 192.41 91.42
  L 192.42 94.80
  C 192.42 95.31 192.83 95.72 193.34 95.72"
/>
<path stroke="#9298a5" vector-effect="non-scaling-stroke" d="
  M 257.8099 90.6097
  C 257.82 89.13 256.62 87.93 255.1393 87.9203
  L 254.9793 87.9198
  C 253.50 87.91 252.30 89.11 252.2900 90.5904
  L 252.2301 107.7503
  C 252.22 109.23 253.42 110.43 254.9007 110.4397
  L 255.0607 110.4402
  C 256.54 110.45 257.74 109.25 257.7500 107.7696
  L 257.8099 90.6097"
/>
<path stroke="#9298a5" vector-effect="non-scaling-stroke" d="
  M 290.3350 90.5551
  C 290.33 89.05 289.11 87.84 287.6103 87.8399
  L 287.4303 87.8402
  C 285.93 87.84 284.71 89.06 284.7150 90.5649
  L 284.7450 107.7449
  C 284.75 109.25 285.97 110.46 287.4697 110.4601
  L 287.6497 110.4598
  C 289.15 110.46 290.37 109.24 290.3650 107.7351
  L 290.3350 90.5551"
/>
<path stroke="#9298a5" vector-effect="non-scaling-stroke" d="
  M 80.56 164.44
  C 80.56 162.62 79.08 161.14 77.26 161.14
  C 75.44 161.14 73.96 162.62 73.96 164.44
  C 73.96 166.26 75.44 167.74 77.26 167.74
  C 79.08 167.74 80.56 166.26 80.56 164.44"
/>
<path stroke="#9298a5" vector-effect="non-scaling-stroke" d="
  M 66.51 186.23
  C 66.51 184.41 65.04 182.94 63.22 182.94
  C 61.40 182.94 59.93 184.41 59.93 186.23
  C 59.93 188.05 61.40 189.52 63.22 189.52
  C 65.04 189.52 66.51 188.05 66.51 186.23"
/>
</g>
<path fill="none" d="
  M 0.00 0.00
  L 300.00 0.00
  L 300.00 204.00
  L 0.00 204.00
  L 0.00 0.00
  Z
  M 100.27 40.31
  C 106.70 37.23 105.77 27.46 98.77 25.82
  C 90.82 23.95 85.80 33.54 91.67 39.09
  C 92.31 39.70 93.09 39.99 93.70 40.57
  C 93.99 40.83 94.13 41.15 94.12 41.54
  L 94.01 48.72
  C 94.00 49.78 94.41 50.80 95.16 51.55
  L 102.35 58.72
  C 102.56 58.93 102.56 59.26 102.36 59.48
  C 99.33 62.70 95.72 65.30 91.55 67.27
  C 91.44 67.33 91.44 67.48 91.55 67.53
  L 97.99 70.47
  C 98.20 70.57 98.45 70.55 98.66 70.43
  C 105.85 66.00 110.61 60.24 112.95 53.13
  C 113.97 50.04 114.43 45.77 114.32 40.30
  C 114.20 33.65 114.14 26.73 114.13 19.56
  C 114.13 19.32 114.20 19.10 114.33 18.89
  C 114.56 18.56 114.85 18.27 115.21 18.03
  C 120.01 14.86 119.83 7.90 115.05 4.96
  C 110.63 2.25 104.78 4.50 103.41 9.45
  C 102.42 13.03 104.05 16.46 107.13 18.41
  C 107.64 18.73 107.95 19.30 107.96 19.90
  C 107.99 28.24 108.01 36.74 108.04 45.41
  C 108.05 48.29 107.25 50.98 106.04 53.52
  C 105.90 53.81 105.53 53.88 105.28 53.68
  C 103.33 52.08 101.55 50.25 99.94 48.19
  C 99.73 47.91 99.61 47.57 99.61 47.21
  L 99.68 41.24
  C 99.69 40.84 99.91 40.48 100.27 40.31
  Z
  M 64.00 23.17
  C 69.00 17.08 70.20 10.62 64.11 4.50
  C 63.65 4.04 62.91 4.02 62.43 4.46
  C 56.67 9.74 56.96 18.20 62.91 23.26
  C 63.24 23.54 63.72 23.50 64.00 23.17
  Z
  M 42.63 14.21
  C 41.86 21.44 46.70 29.03 54.74 28.06
  C 55.01 28.02 55.22 27.81 55.24 27.54
  C 56.00 20.13 51.96 13.07 44.18 12.85
  C 43.24 12.82 42.72 13.28 42.63 14.21
  Z
  M 72.79 28.48
  C 80.48 27.10 84.99 21.35 83.76 13.88
  C 83.59 12.86 83.01 12.46 82.00 12.67
  C 74.20 14.30 70.63 19.19 71.29 27.33
  C 71.36 28.26 71.86 28.65 72.79 28.48
  Z
  M 76.71 70.77
  C 82.26 73.75 90.35 75.43 95.15 79.81
  C 96.88 81.38 97.96 83.75 98.39 86.91
  C 99.36 93.93 93.98 98.93 87.16 99.13
  C 73.66 99.51 72.45 118.79 85.70 121.18
  C 89.57 121.88 93.35 123.00 97.06 124.55
  C 97.63 124.78 98.28 124.72 98.79 124.39
  C 108.46 118.17 114.94 107.83 113.65 96.29
  C 112.23 83.54 102.83 74.32 90.62 70.09
  C 86.91 68.80 83.42 67.33 80.15 65.66
  C 72.36 61.71 66.29 53.71 66.29 44.68
  C 66.29 39.66 66.28 35.16 66.26 31.17
  C 66.25 29.09 65.21 28.12 63.14 28.27
  L 62.68 28.30
  C 61.13 28.41 60.34 29.23 60.31 30.78
  C 60.14 37.99 59.31 46.77 61.59 53.43
  C 64.16 60.96 69.20 66.74 76.71 70.77
  Z
  M 42.67 32.49
  C 42.08 39.74 45.45 46.65 53.28 47.40
  C 54.43 47.51 55.01 46.99 55.02 45.84
  C 55.05 43.46 55.32 41.22 54.28 38.95
  C 52.17 34.34 48.49 32.01 43.26 31.95
  C 42.95 31.94 42.69 32.18 42.67 32.49
  Z
  M 72.94 47.39
  C 80.47 45.77 84.59 41.57 83.68 33.14
  C 83.58 32.21 83.07 31.80 82.14 31.90
  C 73.80 32.81 70.82 38.73 71.50 46.32
  C 71.58 47.22 72.06 47.58 72.94 47.39
  Z
  M 30.43 71.36
  C 30.40 70.76 29.87 70.31 29.28 70.38
  L 25.27 70.87
  C 24.76 70.93 24.37 71.36 24.36 71.88
  L 24.28 77.01
  C 24.27 77.59 24.74 78.07 25.32 78.06
  L 29.67 78.03
  C 30.25 78.02 30.72 77.53 30.69 76.95
  L 30.43 71.36
  Z
  M 274.2850 71.1666
  C 274.28 70.86 274.02 70.61 273.7134 70.6184
  L 268.7145 70.7232
  C 268.41 70.73 268.16 70.99 268.1664 71.2948
  L 268.2950 77.4334
  C 268.30 77.74 268.56 77.99 268.8666 77.9816
  L 273.8655 77.8768
  C 274.17 77.87 274.42 77.61 274.4136 77.3052
  L 274.2850 71.1666
  Z
  M 176.16 114.46
  L 176.45 115.45
  C 176.56 115.82 176.81 116.01 177.20 116.00
  L 181.50 115.97
  C 181.90 115.97 182.22 115.65 182.22 115.25
  L 182.23 71.21
  C 182.23 70.93 182.00 70.70 181.71 70.70
  L 176.52 70.73
  C 176.19 70.74 176.02 70.90 176.02 71.23
  L 176.05 83.01
  C 176.05 83.58 175.83 83.68 175.40 83.31
  C 174.43 82.48 173.36 82.00 172.19 81.89
  C 166.99 81.37 164.53 85.38 164.36 90.24
  C 164.17 95.64 164.17 101.62 164.36 108.19
  C 164.50 113.12 166.67 117.56 172.54 116.25
  C 173.68 115.99 174.53 115.10 175.29 114.26
  C 175.70 113.80 175.99 113.87 176.16 114.46
  Z
  M 128.28 79.79
  C 129.05 77.20 132.32 77.80 133.08 80.02
  C 133.41 80.99 133.47 82.60 133.24 84.85
  C 133.22 85.05 133.38 85.22 133.58 85.23
  L 138.77 85.30
  C 139.04 85.31 139.19 85.18 139.22 84.91
  C 139.91 78.68 138.47 72.00 130.72 71.99
  C 123.14 71.99 121.54 78.02 121.56 84.27
  C 121.59 91.22 121.59 98.16 121.57 105.08
  C 121.55 110.25 122.77 115.93 129.02 116.52
  C 137.70 117.34 139.88 111.20 139.53 103.98
  C 139.50 103.33 139.16 103.01 138.51 103.01
  L 134.46 102.99
  C 133.78 102.98 133.46 103.32 133.49 104.00
  C 133.57 105.79 133.63 110.73 130.65 110.54
  C 128.21 110.38 127.81 107.91 127.82 105.92
  C 127.85 98.13 127.86 90.44 127.84 82.85
  C 127.83 81.82 127.98 80.80 128.28 79.79
  Z
  M 17.37 92.15
  C 19.86 89.40 19.49 86.19 19.65 82.78
  C 19.89 77.62 17.46 73.06 11.83 72.64
  C 8.76 72.41 5.66 72.38 2.53 72.53
  C 2.27 72.54 2.06 72.76 2.06 73.03
  L 1.98 115.22
  C 1.98 115.62 2.29 115.95 2.68 115.97
  C 6.11 116.16 9.40 116.14 12.56 115.90
  C 21.01 115.25 20.82 106.25 20.43 99.82
  C 20.27 97.25 19.27 95.09 17.42 93.35
  C 17.08 93.03 17.06 92.49 17.37 92.15
  Z
  M 223.41 72.84
  L 223.55 115.64
  C 223.56 115.84 223.71 115.99 223.91 115.99
  L 232.56 115.96
  C 237.98 115.94 242.36 111.36 242.34 105.73
  L 242.26 82.63
  C 242.24 76.99 237.83 72.44 232.40 72.46
  L 223.75 72.49
  C 223.56 72.49 223.40 72.65 223.41 72.84
  Z
  M 71.55 84.62
  C 74.48 81.27 77.97 78.72 82.01 76.97
  C 82.70 76.67 82.70 76.37 82.01 76.07
  L 76.33 73.62
  C 75.79 73.39 75.18 73.44 74.69 73.75
  C 63.48 80.98 56.55 94.12 61.13 107.47
  C 64.63 117.64 74.04 125.91 84.47 128.72
  C 95.29 131.63 104.31 137.77 107.12 148.87
  C 108.26 153.40 107.54 160.49 107.62 165.81
  C 107.65 167.68 108.57 168.85 110.38 169.32
  C 110.69 169.39 110.99 169.40 111.28 169.33
  C 112.87 168.96 113.68 167.96 113.73 166.33
  C 113.86 160.91 113.84 155.91 113.65 151.32
  C 113.15 139.19 103.26 128.98 92.20 124.91
  C 89.57 123.94 86.86 122.97 84.07 122.01
  C 68.61 116.66 59.22 98.69 71.55 84.62
  Z
  M 90.22 82.76
  C 90.22 81.85 89.48 81.11 88.57 81.11
  L 85.01 81.11
  C 84.10 81.11 83.36 81.85 83.36 82.76
  L 83.36 90.14
  C 83.36 91.05 84.10 91.79 85.01 91.79
  L 88.57 91.79
  C 89.48 91.79 90.22 91.05 90.22 90.14
  L 90.22 82.76
  Z
  M 52.5646 90.2845
  C 52.56 85.63 48.78 81.86 44.1199 81.8692
  L 43.1799 81.8708
  C 38.52 81.88 34.76 85.66 34.7646 90.3155
  L 34.7954 107.9755
  C 34.80 112.63 38.58 116.40 43.2401 116.3908
  L 44.1801 116.3892
  C 48.84 116.38 52.60 112.60 52.5954 107.9445
  L 52.5646 90.2845
  Z
  M 160.5354 90.3555
  C 160.54 85.72 156.79 81.95 152.1501 81.9408
  L 151.2101 81.9392
  C 146.57 81.93 142.80 85.69 142.7954 90.3245
  L 142.7646 108.0045
  C 142.76 112.64 146.51 116.41 151.1499 116.4192
  L 152.0899 116.4208
  C 156.73 116.43 160.50 112.67 160.5046 108.0355
  L 160.5354 90.3555
  Z
  M 193.18 100.83
  L 203.22 100.98
  C 203.56 100.99 203.74 100.82 203.75 100.49
  C 203.89 96.70 203.85 93.25 203.62 90.13
  C 203.21 84.61 199.54 81.09 194.01 81.96
  C 189.44 82.67 186.97 85.57 186.62 90.65
  C 186.35 94.50 186.25 99.33 186.32 105.12
  C 186.41 112.43 188.70 117.46 197.20 116.35
  C 202.17 115.70 203.99 110.70 203.72 106.03
  C 203.71 105.85 203.61 105.76 203.44 105.76
  L 198.20 105.79
  C 198.04 105.79 197.95 105.87 197.94 106.04
  C 197.81 107.57 197.44 108.94 196.83 110.16
  C 196.61 110.58 196.20 110.86 195.73 110.90
  C 191.39 111.26 192.22 104.36 192.50 101.44
  C 192.54 101.03 192.77 100.83 193.18 100.83
  Z
  M 213.71 86.48
  L 213.74 83.22
  C 213.74 82.70 213.48 82.44 212.97 82.45
  L 208.66 82.50
  C 208.11 82.51 207.83 82.79 207.83 83.34
  L 207.82 115.32
  C 207.82 115.70 208.14 116.02 208.52 116.01
  L 213.47 115.97
  C 213.84 115.97 214.03 115.78 214.03 115.41
  C 214.04 109.23 214.05 103.09 214.06 96.98
  C 214.07 93.48 215.71 90.16 219.70 90.26
  C 220.24 90.27 220.51 90.01 220.50 89.47
  L 220.49 83.30
  C 220.49 81.95 219.87 81.54 218.63 82.05
  C 216.54 82.91 215.04 84.42 214.12 86.57
  C 213.84 87.24 213.70 87.21 213.71 86.48
  Z
  M 263.92 90.40
  C 263.92 85.74 260.14 81.96 255.48 81.96
  L 254.54 81.96
  C 249.88 81.96 246.10 85.74 246.10 90.40
  L 246.10 108.00
  C 246.10 112.66 249.88 116.44 254.54 116.44
  L 255.48 116.44
  C 260.14 116.44 263.92 112.66 263.92 108.00
  L 263.92 90.40
  Z
  M 296.4147 90.4244
  C 296.41 85.75 292.61 81.97 287.9399 81.9792
  L 286.9799 81.9809
  C 282.31 81.99 278.53 85.78 278.5347 90.4556
  L 278.5653 108.0156
  C 278.57 112.69 282.37 116.47 287.0401 116.4608
  L 288.0001 116.4591
  C 292.67 116.45 296.45 112.66 296.4453 107.9844
  L 296.4147 90.4244
  Z
  M 30.6073 83.4956
  C 30.61 82.87 30.10 82.36 29.4793 82.3636
  L 25.3793 82.3564
  C 24.76 82.36 24.25 82.86 24.2473 83.4845
  L 24.1927 114.8044
  C 24.19 115.43 24.70 115.94 25.3207 115.9364
  L 29.4207 115.9436
  C 30.04 115.94 30.55 115.44 30.5527 114.8155
  L 30.6073 83.4956
  Z
  M 266.78 121.34
  L 265.22 121.51
  C 264.91 121.54 264.75 121.72 264.75 122.03
  L 264.75 126.72
  C 264.75 127.12 264.95 127.35 265.34 127.42
  C 271.80 128.45 274.22 125.09 274.28 119.22
  C 274.40 107.30 274.41 95.15 274.32 82.76
  C 274.32 82.59 274.18 82.46 274.01 82.46
  L 268.49 82.50
  C 268.35 82.50 268.24 82.62 268.24 82.76
  L 268.24 119.72
  C 268.24 120.70 267.75 121.24 266.78 121.34
  Z
  M 67.98 144.26
  C 68.16 143.89 68.65 143.81 68.94 144.10
  L 74.12 149.36
  C 74.37 149.63 74.50 149.94 74.50 150.31
  L 74.51 156.27
  C 74.51 156.67 74.35 156.98 74.02 157.21
  C 71.46 158.98 69.71 160.89 69.55 164.24
  C 69.16 172.47 80.14 175.23 84.08 168.20
  C 86.40 164.05 84.57 159.90 80.67 157.21
  C 80.34 156.98 80.18 156.67 80.19 156.28
  L 80.21 149.00
  C 80.22 148.02 79.82 147.07 79.12 146.38
  L 72.03 139.47
  C 71.73 139.18 71.72 138.71 72.00 138.41
  C 74.83 135.36 78.08 133.02 81.73 131.41
  C 82.47 131.08 82.47 130.76 81.73 130.43
  L 76.68 128.22
  C 75.82 127.84 75.00 127.91 74.22 128.43
  C 67.90 132.62 63.57 138.00 61.22 144.57
  C 60.09 147.72 59.57 151.70 59.66 156.50
  C 59.80 163.99 59.81 171.35 59.69 178.60
  C 59.68 178.93 59.56 179.21 59.31 179.44
  C 58.74 179.95 58.17 180.49 57.62 181.04
  C 53.56 185.07 55.61 191.65 60.65 193.46
  C 69.92 196.78 75.43 183.31 66.54 179.28
  C 66.22 179.13 66.02 178.81 66.02 178.46
  C 66.01 169.92 66.01 161.52 66.02 153.25
  C 66.03 150.02 66.68 147.02 67.98 144.26
  Z
  M 118.59 149.82
  C 117.50 157.76 121.90 164.41 130.30 164.88
  C 130.67 164.90 131.00 164.64 131.06 164.28
  C 132.42 156.16 127.67 150.30 119.68 149.01
  C 119.15 148.92 118.66 149.29 118.59 149.82
  Z
  M 96.89 163.12
  C 101.39 160.07 103.06 155.53 102.44 150.25
  C 102.37 149.63 101.82 149.18 101.20 149.22
  C 98.65 149.39 96.28 150.40 94.07 152.27
  C 90.44 155.34 89.16 159.35 90.21 164.30
  C 90.34 164.90 90.98 165.24 91.55 165.01
  C 93.31 164.30 95.31 164.19 96.89 163.12
  Z
  M 91.34 183.96
  C 99.07 183.15 103.09 177.27 102.53 169.41
  C 102.48 168.67 102.09 168.29 101.34 168.26
  C 99.57 168.19 97.90 168.61 96.33 169.51
  C 91.48 172.31 89.32 176.72 89.86 182.75
  C 89.93 183.50 90.59 184.04 91.34 183.96
  Z
  M 121.04 179.40
  C 123.38 182.17 126.28 183.66 129.73 183.89
  C 130.37 183.93 130.93 183.47 131.00 182.83
  C 131.85 174.50 128.10 169.61 119.76 168.15
  C 119.10 168.04 118.74 168.31 118.67 168.98
  C 118.27 172.76 118.48 176.38 121.04 179.40
  Z
  M 110.4981 191.9199
  C 113.13 191.93 115.27 187.84 115.2900 182.7866
  C 115.31 177.73 113.19 173.63 110.5619 173.6201
  C 107.93 173.61 105.79 177.70 105.7700 182.7534
  C 105.75 187.81 107.87 191.91 110.4981 191.9199
  Z"
/>
<path fill="#ffffff" d="
  M 99.68 41.24
  L 99.61 47.21
  C 99.61 47.57 99.73 47.91 99.94 48.19
  C 101.55 50.25 103.33 52.08 105.28 53.68
  C 105.53 53.88 105.90 53.81 106.04 53.52
  C 107.25 50.98 108.05 48.29 108.04 45.41
  C 108.01 36.74 107.99 28.24 107.96 19.90
  C 107.95 19.30 107.64 18.73 107.13 18.41
  C 104.05 16.46 102.42 13.03 103.41 9.45
  C 104.78 4.50 110.63 2.25 115.05 4.96
  C 119.83 7.90 120.01 14.86 115.21 18.03
  C 114.85 18.27 114.56 18.56 114.33 18.89
  C 114.20 19.10 114.13 19.32 114.13 19.56
  C 114.14 26.73 114.20 33.65 114.32 40.30
  C 114.43 45.77 113.97 50.04 112.95 53.13
  C 110.61 60.24 105.85 66.00 98.66 70.43
  C 98.45 70.55 98.20 70.57 97.99 70.47
  L 91.55 67.53
  C 91.44 67.48 91.44 67.33 91.55 67.27
  C 95.72 65.30 99.33 62.70 102.36 59.48
  C 102.56 59.26 102.56 58.93 102.35 58.72
  L 95.16 51.55
  C 94.41 50.80 94.00 49.78 94.01 48.72
  L 94.12 41.54
  C 94.13 41.15 93.99 40.83 93.70 40.57
  C 93.09 39.99 92.31 39.70 91.67 39.09
  C 85.80 33.54 90.82 23.95 98.77 25.82
  C 105.77 27.46 106.70 37.23 100.27 40.31
  C 99.91 40.48 99.69 40.84 99.68 41.24
  Z
  M 111.2658 14.8787
  C 113.03 14.68 114.29 13.04 114.0794 11.2166
  C 113.87 9.39 112.28 8.08 110.5142 8.2813
  C 108.75 8.48 107.49 10.12 107.7006 11.9434
  C 107.91 13.77 109.50 15.08 111.2658 14.8787
  Z
  M 100.14 33.37
  C 100.14 31.56 98.67 30.09 96.86 30.09
  C 95.05 30.09 93.58 31.56 93.58 33.37
  C 93.58 35.18 95.05 36.65 96.86 36.65
  C 98.67 36.65 100.14 35.18 100.14 33.37
  Z"
/>
<path fill="#a9ce6a" d="
  M 64.11 4.50
  C 70.20 10.62 69.00 17.08 64.00 23.17
  C 63.72 23.50 63.24 23.54 62.91 23.26
  C 56.96 18.20 56.67 9.74 62.43 4.46
  C 62.91 4.02 63.65 4.04 64.11 4.50
  Z"
/>
<ellipse fill="none" cx="0.00" cy="0.00" transform="translate(110.89,11.58) rotate(83.5)" rx="3.32" ry="3.21"/>
<path fill="#a9ce6a" d="
  M 54.74 28.06
  C 46.70 29.03 41.86 21.44 42.63 14.21
  C 42.72 13.28 43.24 12.82 44.18 12.85
  C 51.96 13.07 56.00 20.13 55.24 27.54
  C 55.22 27.81 55.01 28.02 54.74 28.06
  Z"
/>
<path fill="#a9ce6a" d="
  M 83.76 13.88
  C 84.99 21.35 80.48 27.10 72.79 28.48
  C 71.86 28.65 71.36 28.26 71.29 27.33
  C 70.63 19.19 74.20 14.30 82.00 12.67
  C 83.01 12.46 83.59 12.86 83.76 13.88
  Z"
/>
<path fill="#ffffff" d="
  M 95.15 79.81
  C 90.35 75.43 82.26 73.75 76.71 70.77
  C 69.20 66.74 64.16 60.96 61.59 53.43
  C 59.31 46.77 60.14 37.99 60.31 30.78
  C 60.34 29.23 61.13 28.41 62.68 28.30
  L 63.14 28.27
  C 65.21 28.12 66.25 29.09 66.26 31.17
  C 66.28 35.16 66.29 39.66 66.29 44.68
  C 66.29 53.71 72.36 61.71 80.15 65.66
  C 83.42 67.33 86.91 68.80 90.62 70.09
  C 102.83 74.32 112.23 83.54 113.65 96.29
  C 114.94 107.83 108.46 118.17 98.79 124.39
  C 98.28 124.72 97.63 124.78 97.06 124.55
  C 93.35 123.00 89.57 121.88 85.70 121.18
  C 72.45 118.79 73.66 99.51 87.16 99.13
  C 93.98 98.93 99.36 93.93 98.39 86.91
  C 97.96 83.75 96.88 81.38 95.15 79.81
  Z
  M 86.97 107.51
  L 86.77 113.81
  C 86.76 114.19 86.56 114.41 86.18 114.48
  L 84.96 114.67
  C 84.66 114.72 84.42 114.94 84.34 115.24
  L 84.24 115.62
  C 84.19 115.83 84.34 116.03 84.55 116.04
  L 90.18 116.21
  C 90.55 116.22 90.79 116.05 90.88 115.70
  C 91.17 114.60 91.26 113.43 91.16 112.18
  C 91.13 111.74 90.92 111.42 90.53 111.22
  L 90.28 111.09
  C 89.92 110.90 89.50 111.22 89.59 111.62
  C 89.81 112.58 89.74 113.46 89.37 114.26
  C 89.12 114.81 88.30 114.62 88.32 114.02
  L 88.52 106.54
  C 88.54 105.84 87.98 105.27 87.29 105.26
  L 85.09 105.25
  C 84.73 105.24 84.42 105.52 84.38 105.88
  L 84.34 106.31
  C 84.32 106.50 84.45 106.67 84.64 106.69
  L 86.50 106.96
  C 86.77 107.00 86.98 107.24 86.97 107.51
  Z"
/>
<circle fill="none" cx="96.86" cy="33.37" r="3.28"/>
<path fill="#bfd65a" d="
  M 42.67 32.49
  C 42.69 32.18 42.95 31.94 43.26 31.95
  C 48.49 32.01 52.17 34.34 54.28 38.95
  C 55.32 41.22 55.05 43.46 55.02 45.84
  C 55.01 46.99 54.43 47.51 53.28 47.40
  C 45.45 46.65 42.08 39.74 42.67 32.49
  Z"
/>
<path fill="#bfd65a" d="
  M 83.68 33.14
  C 84.59 41.57 80.47 45.77 72.94 47.39
  C 72.06 47.58 71.58 47.22 71.50 46.32
  C 70.82 38.73 73.80 32.81 82.14 31.90
  C 83.07 31.80 83.58 32.21 83.68 33.14
  Z"
/>
<path fill="#a9ce6a" d="
  M 30.43 71.36
  L 30.69 76.95
  C 30.72 77.53 30.25 78.02 29.67 78.03
  L 25.32 78.06
  C 24.74 78.07 24.27 77.59 24.28 77.01
  L 24.36 71.88
  C 24.37 71.36 24.76 70.93 25.27 70.87
  L 29.28 70.38
  C 29.87 70.31 30.40 70.76 30.43 71.36
  Z"
/>
<rect fill="#ffffff" x="-3.06" y="-3.63" transform="translate(271.29,74.30) rotate(-1.2)" width="6.12" height="7.26" rx="0.56"/>
<path fill="#ffffff" d="
  M 175.29 114.26
  C 174.53 115.10 173.68 115.99 172.54 116.25
  C 166.67 117.56 164.50 113.12 164.36 108.19
  C 164.17 101.62 164.17 95.64 164.36 90.24
  C 164.53 85.38 166.99 81.37 172.19 81.89
  C 173.36 82.00 174.43 82.48 175.40 83.31
  C 175.83 83.68 176.05 83.58 176.05 83.01
  L 176.02 71.23
  C 176.02 70.90 176.19 70.74 176.52 70.73
  L 181.71 70.70
  C 182.00 70.70 182.23 70.93 182.23 71.21
  L 182.22 115.25
  C 182.22 115.65 181.90 115.97 181.50 115.97
  L 177.20 116.00
  C 176.81 116.01 176.56 115.82 176.45 115.45
  L 176.16 114.46
  C 175.99 113.87 175.70 113.80 175.29 114.26
  Z
  M 175.9899 90.5797
  C 176.00 89.11 174.81 87.92 173.3392 87.9104
  L 173.1592 87.9098
  C 171.69 87.90 170.50 89.09 170.4900 90.5605
  L 170.4301 107.7203
  C 170.42 109.19 171.61 110.38 173.0808 110.3896
  L 173.2608 110.3902
  C 174.73 110.40 175.92 109.21 175.9300 107.7395
  L 175.9899 90.5797
  Z"
/>
<path fill="#ffffff" d="
  M 128.28 79.79
  C 127.98 80.80 127.83 81.82 127.84 82.85
  C 127.86 90.44 127.85 98.13 127.82 105.92
  C 127.81 107.91 128.21 110.38 130.65 110.54
  C 133.63 110.73 133.57 105.79 133.49 104.00
  C 133.46 103.32 133.78 102.98 134.46 102.99
  L 138.51 103.01
  C 139.16 103.01 139.50 103.33 139.53 103.98
  C 139.88 111.20 137.70 117.34 129.02 116.52
  C 122.77 115.93 121.55 110.25 121.57 105.08
  C 121.59 98.16 121.59 91.22 121.56 84.27
  C 121.54 78.02 123.14 71.99 130.72 71.99
  C 138.47 72.00 139.91 78.68 139.22 84.91
  C 139.19 85.18 139.04 85.31 138.77 85.30
  L 133.58 85.23
  C 133.38 85.22 133.22 85.05 133.24 84.85
  C 133.47 82.60 133.41 80.99 133.08 80.02
  C 132.32 77.80 129.05 77.20 128.28 79.79
  Z"
/>
<path fill="#a9ce6a" d="
  M 17.42 93.35
  C 19.27 95.09 20.27 97.25 20.43 99.82
  C 20.82 106.25 21.01 115.25 12.56 115.90
  C 9.40 116.14 6.11 116.16 2.68 115.97
  C 2.29 115.95 1.98 115.62 1.98 115.22
  L 2.06 73.03
  C 2.06 72.76 2.27 72.54 2.53 72.53
  C 5.66 72.38 8.76 72.41 11.83 72.64
  C 17.46 73.06 19.89 77.62 19.65 82.78
  C 19.49 86.19 19.86 89.40 17.37 92.15
  C 17.06 92.49 17.08 93.03 17.42 93.35
  Z
  M 8.21 79.17
  L 8.19 89.19
  C 8.19 89.76 8.65 90.23 9.22 90.23
  L 9.97 90.23
  C 12.18 90.23 13.97 88.35 13.98 86.04
  L 13.98 82.36
  C 13.99 80.04 12.20 78.15 9.99 78.15
  L 9.24 78.15
  C 8.67 78.15 8.21 78.61 8.21 79.17
  Z
  M 8.25 96.59
  L 8.21 109.67
  C 8.21 110.11 8.56 110.47 9.00 110.47
  L 10.42 110.48
  C 12.49 110.48 14.17 108.82 14.18 106.76
  L 14.20 99.54
  C 14.21 97.48 12.54 95.80 10.48 95.80
  L 9.06 95.79
  C 8.61 95.79 8.25 96.15 8.25 96.59
  Z"
/>
<path fill="#ffffff" d="
  M 223.41 72.84
  C 223.40 72.65 223.56 72.49 223.75 72.49
  L 232.40 72.46
  C 237.83 72.44 242.24 76.99 242.26 82.63
  L 242.34 105.73
  C 242.36 111.36 237.98 115.94 232.56 115.96
  L 223.91 115.99
  C 223.71 115.99 223.56 115.84 223.55 115.64
  L 223.41 72.84
  Z
  M 232.16 110.22
  L 232.81 110.06
  C 234.84 109.55 235.88 108.26 235.95 106.17
  C 236.19 98.30 236.16 90.23 235.85 81.94
  C 235.78 80.13 234.87 79.05 233.10 78.69
  C 232.71 78.61 232.33 78.52 231.96 78.41
  C 230.34 77.94 229.53 78.55 229.52 80.24
  L 229.51 108.15
  C 229.51 109.97 230.39 110.66 232.16 110.22
  Z"
/>
<path fill="#ffffff" d="
  M 71.55 84.62
  C 59.22 98.69 68.61 116.66 84.07 122.01
  C 86.86 122.97 89.57 123.94 92.20 124.91
  C 103.26 128.98 113.15 139.19 113.65 151.32
  C 113.84 155.91 113.86 160.91 113.73 166.33
  C 113.68 167.96 112.87 168.96 111.28 169.33
  C 110.99 169.40 110.69 169.39 110.38 169.32
  C 108.57 168.85 107.65 167.68 107.62 165.81
  C 107.54 160.49 108.26 153.40 107.12 148.87
  C 104.31 137.77 95.29 131.63 84.47 128.72
  C 74.04 125.91 64.63 117.64 61.13 107.47
  C 56.55 94.12 63.48 80.98 74.69 73.75
  C 75.18 73.44 75.79 73.39 76.33 73.62
  L 82.01 76.07
  C 82.70 76.37 82.70 76.67 82.01 76.97
  C 77.97 78.72 74.48 81.27 71.55 84.62
  Z"
/>
<path fill="none" d="
  M 8.21 79.17
  C 8.21 78.61 8.67 78.15 9.24 78.15
  L 9.99 78.15
  C 12.20 78.15 13.99 80.04 13.98 82.36
  L 13.98 86.04
  C 13.97 88.35 12.18 90.23 9.97 90.23
  L 9.22 90.23
  C 8.65 90.23 8.19 89.76 8.19 89.19
  L 8.21 79.17
  Z"
/>
<path fill="none" d="
  M 232.16 110.22
  C 230.39 110.66 229.51 109.97 229.51 108.15
  L 229.52 80.24
  C 229.53 78.55 230.34 77.94 231.96 78.41
  C 232.33 78.52 232.71 78.61 233.10 78.69
  C 234.87 79.05 235.78 80.13 235.85 81.94
  C 236.16 90.23 236.19 98.30 235.95 106.17
  C 235.88 108.26 234.84 109.55 232.81 110.06
  L 232.16 110.22
  Z"
/>
<path fill="#ffffff" d="
  M 90.22 90.14
  C 90.22 91.05 89.48 91.79 88.57 91.79
  L 85.01 91.79
  C 84.10 91.79 83.36 91.05 83.36 90.14
  L 83.36 82.76
  C 83.36 81.85 84.10 81.11 85.01 81.11
  L 88.57 81.11
  C 89.48 81.11 90.22 81.85 90.22 82.76
  L 90.22 90.14
  Z
  M 88.7844 83.3165
  C 88.78 82.87 88.42 82.52 87.9830 82.5179
  L 85.5630 82.5221
  C 85.12 82.52 84.76 82.88 84.7644 83.3235
  L 84.7756 89.7035
  C 84.78 90.15 85.14 90.50 85.5770 90.5021
  L 87.9970 90.4979
  C 88.44 90.50 88.80 90.14 88.7956 89.6965
  L 88.7844 83.3165
  Z"
/>
<path fill="#a9ce6a" d="
  M 52.5954 107.9445
  C 52.60 112.60 48.84 116.38 44.1801 116.3892
  L 43.2401 116.3908
  C 38.58 116.40 34.80 112.63 34.7954 107.9755
  L 34.7646 90.3155
  C 34.76 85.66 38.52 81.88 43.1799 81.8708
  L 44.1199 81.8692
  C 48.78 81.86 52.56 85.63 52.5646 90.2845
  L 52.5954 107.9445
  Z
  M 46.4050 90.6548
  C 46.41 89.20 45.23 88.01 43.7696 88.0102
  L 43.5896 88.0099
  C 42.13 88.01 40.95 89.19 40.9450 90.6452
  L 40.9150 107.8652
  C 40.91 109.32 42.09 110.51 43.5504 110.5098
  L 43.7304 110.5101
  C 45.19 110.51 46.37 109.33 46.3750 107.8748
  L 46.4050 90.6548
  Z"
/>
<path fill="#ffffff" d="
  M 160.5046 108.0355
  C 160.50 112.67 156.73 116.43 152.0899 116.4208
  L 151.1499 116.4192
  C 146.51 116.41 142.76 112.64 142.7646 108.0045
  L 142.7954 90.3245
  C 142.80 85.69 146.57 81.93 151.2101 81.9392
  L 152.1501 81.9408
  C 156.79 81.95 160.54 85.72 160.5354 90.3555
  L 160.5046 108.0355
  Z
  M 154.5099 90.5699
  C 154.52 89.06 153.30 87.84 151.7895 87.8304
  L 151.6095 87.8298
  C 150.10 87.82 148.88 89.04 148.8700 90.5502
  L 148.8101 107.7101
  C 148.80 109.22 150.02 110.44 151.5305 110.4496
  L 151.7105 110.4502
  C 153.22 110.46 154.44 109.24 154.4500 107.7298
  L 154.5099 90.5699
  Z"
/>
<path fill="#ffffff" d="
  M 192.50 101.44
  C 192.22 104.36 191.39 111.26 195.73 110.90
  C 196.20 110.86 196.61 110.58 196.83 110.16
  C 197.44 108.94 197.81 107.57 197.94 106.04
  C 197.95 105.87 198.04 105.79 198.20 105.79
  L 203.44 105.76
  C 203.61 105.76 203.71 105.85 203.72 106.03
  C 203.99 110.70 202.17 115.70 197.20 116.35
  C 188.70 117.46 186.41 112.43 186.32 105.12
  C 186.25 99.33 186.35 94.50 186.62 90.65
  C 186.97 85.57 189.44 82.67 194.01 81.96
  C 199.54 81.09 203.21 84.61 203.62 90.13
  C 203.85 93.25 203.89 96.70 203.75 100.49
  C 203.74 100.82 203.56 100.99 203.22 100.98
  L 193.18 100.83
  C 192.77 100.83 192.54 101.03 192.50 101.44
  Z
  M 193.34 95.72
  L 197.18 95.72
  C 197.69 95.72 198.10 95.30 198.10 94.80
  L 198.09 91.42
  C 198.09 89.25 196.98 87.50 195.62 87.50
  L 194.86 87.50
  C 193.50 87.50 192.41 89.26 192.41 91.42
  L 192.42 94.80
  C 192.42 95.31 192.83 95.72 193.34 95.72
  Z"
/>
<path fill="#ffffff" d="
  M 214.12 86.57
  C 215.04 84.42 216.54 82.91 218.63 82.05
  C 219.87 81.54 220.49 81.95 220.49 83.30
  L 220.50 89.47
  C 220.51 90.01 220.24 90.27 219.70 90.26
  C 215.71 90.16 214.07 93.48 214.06 96.98
  C 214.05 103.09 214.04 109.23 214.03 115.41
  C 214.03 115.78 213.84 115.97 213.47 115.97
  L 208.52 116.01
  C 208.14 116.02 207.82 115.70 207.82 115.32
  L 207.83 83.34
  C 207.83 82.79 208.11 82.51 208.66 82.50
  L 212.97 82.45
  C 213.48 82.44 213.74 82.70 213.74 83.22
  L 213.71 86.48
  C 213.70 87.21 213.84 87.24 214.12 86.57
  Z"
/>
<path fill="#ffffff" d="
  M 263.92 108.00
  C 263.92 112.66 260.14 116.44 255.48 116.44
  L 254.54 116.44
  C 249.88 116.44 246.10 112.66 246.10 108.00
  L 246.10 90.40
  C 246.10 85.74 249.88 81.96 254.54 81.96
  L 255.48 81.96
  C 260.14 81.96 263.92 85.74 263.92 90.40
  L 263.92 108.00
  Z
  M 257.8099 90.6097
  C 257.82 89.13 256.62 87.93 255.1393 87.9203
  L 254.9793 87.9198
  C 253.50 87.91 252.30 89.11 252.2900 90.5904
  L 252.2301 107.7503
  C 252.22 109.23 253.42 110.43 254.9007 110.4397
  L 255.0607 110.4402
  C 256.54 110.45 257.74 109.25 257.7500 107.7696
  L 257.8099 90.6097
  Z"
/>
<path fill="#ffffff" d="
  M 296.4453 107.9844
  C 296.45 112.66 292.67 116.45 288.0001 116.4591
  L 287.0401 116.4608
  C 282.37 116.47 278.57 112.69 278.5653 108.0156
  L 278.5347 90.4556
  C 278.53 85.78 282.31 81.99 286.9799 81.9809
  L 287.9399 81.9792
  C 292.61 81.97 296.41 85.75 296.4147 90.4244
  L 296.4453 107.9844
  Z
  M 290.3350 90.5551
  C 290.33 89.05 289.11 87.84 287.6103 87.8399
  L 287.4303 87.8402
  C 285.93 87.84 284.71 89.06 284.7150 90.5649
  L 284.7450 107.7449
  C 284.75 109.25 285.97 110.46 287.4697 110.4601
  L 287.6497 110.4598
  C 289.15 110.46 290.37 109.24 290.3650 107.7351
  L 290.3350 90.5551
  Z"
/>
<rect fill="#a9ce6a" x="-3.18" y="-16.79" transform="translate(27.40,99.15) rotate(0.1)" width="6.36" height="33.58" rx="1.13"/>
<rect fill="none" x="-2.01" y="-3.99" transform="translate(86.78,86.51) rotate(-0.1)" width="4.02" height="7.98" rx="0.80"/>
<path fill="#ffffff" d="
  M 266.78 121.34
  C 267.75 121.24 268.24 120.70 268.24 119.72
  L 268.24 82.76
  C 268.24 82.62 268.35 82.50 268.49 82.50
  L 274.01 82.46
  C 274.18 82.46 274.32 82.59 274.32 82.76
  C 274.41 95.15 274.40 107.30 274.28 119.22
  C 274.22 125.09 271.80 128.45 265.34 127.42
  C 264.95 127.35 264.75 127.12 264.75 126.72
  L 264.75 122.03
  C 264.75 121.72 264.91 121.54 265.22 121.51
  L 266.78 121.34
  Z"
/>
<path fill="none" d="
  M 193.34 95.72
  C 192.83 95.72 192.42 95.31 192.42 94.80
  L 192.41 91.42
  C 192.41 89.26 193.50 87.50 194.86 87.50
  L 195.62 87.50
  C 196.98 87.50 198.09 89.25 198.09 91.42
  L 198.10 94.80
  C 198.10 95.30 197.69 95.72 197.18 95.72
  L 193.34 95.72
  Z"
/>
<rect fill="none" x="-2.82" y="-11.31" transform="translate(151.66,99.14) rotate(0.2)" width="5.64" height="22.62" rx="2.73"/>
<rect fill="none" x="-2.75" y="-11.24" transform="translate(173.21,99.15) rotate(0.2)" width="5.50" height="22.48" rx="2.66"/>
<rect fill="none" x="-2.76" y="-11.26" transform="translate(255.02,99.18) rotate(0.2)" width="5.52" height="22.52" rx="2.68"/>
<rect fill="none" x="-2.81" y="-11.31" transform="translate(287.54,99.15) rotate(-0.1)" width="5.62" height="22.62" rx="2.72"/>
<rect fill="none" x="-2.73" y="-11.25" transform="translate(43.66,99.26) rotate(0.1)" width="5.46" height="22.50" rx="2.64"/>
<path fill="none" d="
  M 8.25 96.59
  C 8.25 96.15 8.61 95.79 9.06 95.79
  L 10.48 95.80
  C 12.54 95.80 14.21 97.48 14.20 99.54
  L 14.18 106.76
  C 14.17 108.82 12.49 110.48 10.42 110.48
  L 9.00 110.47
  C 8.56 110.47 8.21 110.11 8.21 109.67
  L 8.25 96.59
  Z"
/>
<path fill="#a" d="!!!!!!!
  M 86.50 106.96
  L 84.64 106.69
  C 84.45 106.67 84.32 106.50 84.34 106.31
  L 84.38 105.88
  C 84.42 105.52 84.73 105.24 85.09 105.25
  L 87.29 105.26
  C 87.98 105.27 88.54 105.84 88.52 106.54
  L 88.32 114.02
  C 88.30 114.62 89.12 114.81 89.37 114.26
  C 89.74 113.46 89.81 112.58 89.59 111.62
  C 89.50 111.22 89.92 110.90 90.28 111.09
  L 90.53 111.22
  C 90.92 111.42 91.13 111.74 91.16 112.18
  C 91.26 113.43 91.17 114.60 90.88 115.70
  C 90.79 116.05 90.55 116.22 90.18 116.21
  L 84.55 116.04
  C 84.34 116.03 84.19 115.83 84.24 115.62
  L 84.34 115.24
  C 84.42 114.94 84.66 114.72 84.96 114.67
  L 86.18 114.48
  C 86.56 114.41 86.76 114.19 86.77 113.81
  L 86.97 107.51
  C 86.98 107.24 86.77 107.00 86.50 106.96
  Z"
/>
<path fill="#ffffff" d="
  M 67.98 144.26
  C 66.68 147.02 66.03 150.02 66.02 153.25
  C 66.01 161.52 66.01 169.92 66.02 178.46
  C 66.02 178.81 66.22 179.13 66.54 179.28
  C 75.43 183.31 69.92 196.78 60.65 193.46
  C 55.61 191.65 53.56 185.07 57.62 181.04
  C 58.17 180.49 58.74 179.95 59.31 179.44
  C 59.56 179.21 59.68 178.93 59.69 178.60
  C 59.81 171.35 59.80 163.99 59.66 156.50
  C 59.57 151.70 60.09 147.72 61.22 144.57
  C 63.57 138.00 67.90 132.62 74.22 128.43
  C 75.00 127.91 75.82 127.84 76.68 128.22
  L 81.73 130.43
  C 82.47 130.76 82.47 131.08 81.73 131.41
  C 78.08 133.02 74.83 135.36 72.00 138.41
  C 71.72 138.71 71.73 139.18 72.03 139.47
  L 79.12 146.38
  C 79.82 147.07 80.22 148.02 80.21 149.00
  L 80.19 156.28
  C 80.18 156.67 80.34 156.98 80.67 157.21
  C 84.57 159.90 86.40 164.05 84.08 168.20
  C 80.14 175.23 69.16 172.47 69.55 164.24
  C 69.71 160.89 71.46 158.98 74.02 157.21
  C 74.35 156.98 74.51 156.67 74.51 156.27
  L 74.50 150.31
  C 74.50 149.94 74.37 149.63 74.12 149.36
  L 68.94 144.10
  C 68.65 143.81 68.16 143.89 67.98 144.26
  Z
  M 80.56 164.44
  C 80.56 162.62 79.08 161.14 77.26 161.14
  C 75.44 161.14 73.96 162.62 73.96 164.44
  C 73.96 166.26 75.44 167.74 77.26 167.74
  C 79.08 167.74 80.56 166.26 80.56 164.44
  Z
  M 66.51 186.23
  C 66.51 184.41 65.04 182.94 63.22 182.94
  C 61.40 182.94 59.93 184.41 59.93 186.23
  C 59.93 188.05 61.40 189.52 63.22 189.52
  C 65.04 189.52 66.51 188.05 66.51 186.23
  Z"
/>
<path fill="#bfd65a" d="
  M 130.30 164.88
  C 121.90 164.41 117.50 157.76 118.59 149.82
  C 118.66 149.29 119.15 148.92 119.68 149.01
  C 127.67 150.30 132.42 156.16 131.06 164.28
  C 131.00 164.64 130.67 164.90 130.30 164.88
  Z"
/>
<path fill="#bfd65a" d="
  M 102.44 150.25
  C 103.06 155.53 101.39 160.07 96.89 163.12
  C 95.31 164.19 93.31 164.30 91.55 165.01
  C 90.98 165.24 90.34 164.90 90.21 164.30
  C 89.16 159.35 90.44 155.34 94.07 152.27
  C 96.28 150.40 98.65 149.39 101.20 149.22
  C 101.82 149.18 102.37 149.63 102.44 150.25
  Z"
/>
<circle fill="none" cx="77.26" cy="164.44" r="3.30"/>
<path fill="#a9ce6a" d="
  M 102.53 169.41
  C 103.09 177.27 99.07 183.15 91.34 183.96
  C 90.59 184.04 89.93 183.50 89.86 182.75
  C 89.32 176.72 91.48 172.31 96.33 169.51
  C 97.90 168.61 99.57 168.19 101.34 168.26
  C 102.09 168.29 102.48 168.67 102.53 169.41
  Z"
/>
<path fill="#a9ce6a" d="
  M 121.04 179.40
  C 118.48 176.38 118.27 172.76 118.67 168.98
  C 118.74 168.31 119.10 168.04 119.76 168.15
  C 128.10 169.61 131.85 174.50 131.00 182.83
  C 130.93 183.47 130.37 183.93 129.73 183.89
  C 126.28 183.66 123.38 182.17 121.04 179.40
  Z"
/>
<ellipse fill="#a9ce6a" cx="0.00" cy="0.00" transform="translate(110.53,182.77) rotate(90.2)" rx="9.15" ry="4.76"/>
<circle fill="none" cx="63.22" cy="186.23" r="3.29"/>
</svg>